GIL12_slow4_ik
nRows=3
nColumns=375

# SIMM Motion File Header:
name GIL12_slow4_ik
datacolumns 375
datarows 3
otherdata 1
range 0.95000000 0.96667000
endheader
time	pelvis_tx	pelvis_ty	pelvis_tz	pelvis_tilt	pelvis_list	pelvis_rotation	hip_flexion_r	hip_adduction_r	hip_rotation_r	knee_angle_r	ankle_angle_r	hip_flexion_l	hip_adduction_l	hip_rotation_l	knee_angle_l	ankle_angle_l	lumbar_extension	lumbar_bending	lumbar_rotation	subtalar_angle_r	mtp_angle_r	subtalar_angle_l	mtp_angle_l	asis_r_px	asis_r_py	asis_r_pz	asis_l_px	asis_l_py	asis_l_pz	midasis_px	midasis_py	midasis_pz	psis_r_px	psis_r_py	psis_r_pz	psis_l_px	psis_l_py	psis_l_pz	hip_r_px	hip_r_py	hip_r_pz	hip_l_px	hip_l_py	hip_l_pz	midhip_px	midhip_py	midhip_pz	epicondLat_r_px	epicondLat_r_py	epicondLat_r_pz	epicondMed_r_px	epicondMed_r_py	epicondMed_r_pz	thighwand_r_px	thighwand_r_py	thighwand_r_pz	upperleg1_r_px	upperleg1_r_py	upperleg1_r_pz	upperleg2_r_px	upperleg2_r_py	upperleg2_r_pz	malleolusLat_r_px	malleolusLat_r_py	malleolusLat_r_pz	malleolusMedv_r_px	malleolusMedv_r_py	malleolusMedv_r_pz	shankwand_r_px	shankwand_r_py	shankwand_r_pz	lowerleg1_r_px	lowerleg1_r_py	lowerleg1_r_pz	knee_r_px	knee_r_py	knee_r_pz	ankle_r_px	ankle_r_py	ankle_r_pz	toe_r_px	toe_r_py	toe_r_pz	epicondLat_l_px	epicondLat_l_py	epicondLat_l_pz	epicondMed_l_px	epicondMed_l_py	epicondMed_l_pz	thighwand_l_px	thighwand_l_py	thighwand_l_pz	upperleg1_l_px	upperleg1_l_py	upperleg1_l_pz	upperleg2_l_px	upperleg2_l_py	upperleg2_l_pz	malleolusLat_l_px	malleolusLat_l_py	malleolusLat_l_pz	malleolusMedv_l_px	malleolusMedv_l_py	malleolusMedv_l_pz	shankwand_l_px	shankwand_l_py	shankwand_l_pz	lowerleg1_l_px	lowerleg1_l_py	lowerleg1_l_pz	knee_l_px	knee_l_py	knee_l_pz	ankle_l_px	ankle_l_py	ankle_l_pz	toe_l_px	toe_l_py	toe_l_pz	subclavicle_r_px	subclavicle_r_py	subclavicle_r_pz	subclavicle_l_px	subclavicle_l_py	subclavicle_l_pz	neck_px	neck_py	neck_pz	sternalnotch_px	sternalnotch_py	sternalnotch_pz	xyphoidprocess_px	xyphoidprocess_py	xyphoidprocess_pz	midhip_tx	midhip_ty	midhip_tz	hip_r_tx	hip_r_ty	hip_r_tz	hip_l_tx	hip_l_ty	hip_l_tz	knee_r_tx	knee_r_ty	knee_r_tz	knee_l_tx	knee_l_ty	knee_l_tz	ankle_r_tx	ankle_r_ty	ankle_r_tz	ankle_l_tx	ankle_l_ty	ankle_l_tz	midasis_tx	midasis_ty	midasis_tz	asis_r_tx	asis_r_ty	asis_r_tz	asis_l_tx	asis_l_ty	asis_l_tz	psis_r_tx	psis_r_ty	psis_r_tz	psis_l_tx	psis_l_ty	psis_l_tz	epicondLat_r_tx	epicondLat_r_ty	epicondLat_r_tz	epicondLat_l_tx	epicondLat_l_ty	epicondLat_l_tz	epicondMed_r_tx	epicondMed_r_ty	epicondMed_r_tz	epicondMed_l_tx	epicondMed_l_ty	epicondMed_l_tz	malleolusLat_r_tx	malleolusLat_r_ty	malleolusLat_r_tz	malleolusLat_l_tx	malleolusLat_l_ty	malleolusLat_l_tz	malleolusMedv_r_tx	malleolusMedv_r_ty	malleolusMedv_r_tz	malleolusMedv_l_tx	malleolusMedv_l_ty	malleolusMedv_l_tz	neck_tx	neck_ty	neck_tz	subclavicle_r_tx	subclavicle_r_ty	subclavicle_r_tz	subclavicle_l_tx	subclavicle_l_ty	subclavicle_l_tz	sternalnotch_tx	sternalnotch_ty	sternalnotch_tz	xyphoidprocess_tx	xyphoidprocess_ty	xyphoidprocess_tz	thighwand_r_tx	thighwand_r_ty	thighwand_r_tz	thighwand_l_tx	thighwand_l_ty	thighwand_l_tz	upperleg1_r_tx	upperleg1_r_ty	upperleg1_r_tz	upperleg1_l_tx	upperleg1_l_ty	upperleg1_l_tz	upperleg2_r_tx	upperleg2_r_ty	upperleg2_r_tz	upperleg2_l_tx	upperleg2_l_ty	upperleg2_l_tz	shankwand_r_tx	shankwand_r_ty	shankwand_r_tz	shankwand_l_tx	shankwand_l_ty	shankwand_l_tz	lowerleg1_r_tx	lowerleg1_r_ty	lowerleg1_r_tz	lowerleg1_l_tx	lowerleg1_l_ty	lowerleg1_l_tz	toe_r_tx	toe_r_ty	toe_r_tz	toe_l_tx	toe_l_ty	toe_l_tz	ground_force_vx	ground_force_vy	ground_force_vz	ground_force_px	ground_force_py	ground_force_pz	ground_force_vx	ground_force_vy	ground_force_vz	ground_force_px	ground_force_py	ground_force_pz	ground_torque_x	ground_torque_y	ground_torque_z	ground_torque_x	ground_torque_y	ground_torque_z	ground_marker_px	ground_marker_py	ground_marker_pz	ground_marker_px	ground_marker_py	ground_marker_pz	ground_marker_px	ground_marker_py	ground_marker_pz	ground_marker_px	ground_marker_py	ground_marker_pz	ground_marker_px	ground_marker_py	ground_marker_pz	ground_marker_px	ground_marker_py	ground_marker_pz	ground_marker_px	ground_marker_py	ground_marker_pz	ground_marker_px	ground_marker_py	ground_marker_pz	ground_marker_px	ground_marker_py	ground_marker_pz	ground_marker_px	ground_marker_py	ground_marker_pz	ground_marker_px	ground_marker_py	ground_marker_pz	ground_marker_px	ground_marker_py	ground_marker_pz	ground_marker_px	ground_marker_py	ground_marker_pz	ground_marker_px	ground_marker_py	ground_marker_pz	ground_marker_px	ground_marker_py	ground_marker_pz	ground_marker_px	ground_marker_py	ground_marker_pz	ground_marker_px	ground_marker_py	ground_marker_pz	ground_marker_px	ground_marker_py	ground_marker_pz	ground_marker_px	ground_marker_py	ground_marker_pz	ground_marker_px	ground_marker_py	ground_marker_pz	ground_marker_px	ground_marker_py	ground_marker_pz	ground_marker_px	ground_marker_py	ground_marker_pz	ground_marker_px	ground_marker_py	ground_marker_pz	ground_marker_px	ground_marker_py	ground_marker_pz	ground_marker_px	ground_marker_py	ground_marker_pz	ground_marker_px	ground_marker_py	ground_marker_pz	ground_marker_px	ground_marker_py	ground_marker_pz	ground_marker_px	ground_marker_py	ground_marker_pz	ground_marker_px	ground_marker_py	ground_marker_pz	ground_marker_px	ground_marker_py	ground_marker_pz	ground_marker_px	ground_marker_py	ground_marker_pz	ground_marker_px	ground_marker_py	ground_marker_pz	ground_marker_px	ground_marker_py	ground_marker_pz	ground_marker_px	ground_marker_py	ground_marker_pz	ground_marker_px	ground_marker_py	ground_marker_pz	ground_marker_px	ground_marker_py	ground_marker_pz	ground_marker_px	ground_marker_py	ground_marker_pz
      0.95000000	     -1.11321361	      0.66263348	      0.25045356	      5.57894619	      3.33779717	     -2.29832311	    -20.35371466	     -2.13183577	    -13.34398677	    -20.90101983	     15.14123966	     16.98282156	      6.81217779	     -2.53763200	    -10.31786773	    -11.39750745	    -25.30275570	     -5.82316409	      5.98555940	      0.00000000	      0.00000000	      0.00000000	      0.00000000	     -1.00513671	      0.64923369	      0.31698466	     -0.99478374	      0.66018698	      0.14319470	     -1.10371063	      0.66353932	      0.25083604	     -1.12960768	      0.70907508	      0.26952071	     -1.12501909	      0.71364507	      0.18446300	     -1.15877793	      0.60972024	      0.30273448	     -1.15487394	      0.61676298	      0.18905708	     -1.15682594	      0.61324161	      0.24589578	     -1.19766796	      0.29419908	      0.34636417	     -1.17575855	      0.28664956	      0.25565959	     -1.03983952	      0.33033898	      0.31584333	     -1.10071176	      0.40905677	      0.34149661	     -1.14073755	      0.33099435	      0.33686037	     -1.41137542	      0.07156680	      0.31063101	     -1.38884212	      0.05666994	      0.25580924	     -1.35169832	      0.12645090	      0.38850196	     -1.30593186	      0.16863071	      0.33006115	     -1.23721586	      0.31614356	      0.29304581	     -1.40268410	      0.08169411	      0.25906936	     -1.32895678	      0.01930476	      0.32322223	     -0.98498411	      0.33834850	      0.14273994	     -0.98033540	      0.34553158	      0.23444476	     -0.94972782	      0.42223429	      0.07988764	     -0.97109538	      0.48753119	      0.15469134	     -0.94786335	      0.40947306	      0.17908548	     -0.96425451	      0.04275620	      0.17189067	     -0.94310421	      0.04604080	      0.23361982	     -0.86787380	      0.16535584	      0.21154497	     -0.93851199	      0.21162031	      0.19289364	     -1.04284376	      0.33591528	      0.21166186	     -0.98368840	      0.05382444	      0.23230371	     -0.86623630	      0.01364249	      0.18364967	     -1.05022994	      0.97965060	      0.27967920	     -1.05530226	      0.98553227	      0.19131980	     -1.15230841	      1.00001309	      0.24557979	     -1.07125258	      0.98721388	      0.24463055	     -0.97382898	      0.88532362	      0.22708409	     -1.14887200	      0.60538600	      0.24238600	     -1.14745300	      0.61488100	      0.30089500	     -1.14108700	      0.62116200	      0.18379100	     -1.22576200	      0.32554300	      0.28922400	     -1.03147800	      0.34048100	      0.21314300	     -1.40621900	      0.08390700	      0.27746900	     -0.97631600	      0.05739100	      0.21882200	     -1.10057600	      0.68013500	      0.24805000	     -1.10551700	      0.67526000	      0.33893900	     -1.09563400	      0.68501000	      0.15716100	     -1.23825500	      0.69872500	      0.27981400	     -1.23277300	      0.69481800	      0.20035000	     -1.23819400	      0.32712200	      0.33348400	     -1.02864300	      0.33659400	      0.16538500	     -1.22029100	      0.32783500	      0.24338700	     -1.03548100	      0.34051900	      0.25482100	     -1.41127200	      0.08607400	      0.31051500	     -0.98406900	      0.05524900	      0.18733300	     -1.40444000	      0.09505600	      0.24956700	     -0.97710300	      0.05654100	      0.25243400	     -1.15328800	      1.01348200	      0.24670200	     -1.06853700	      0.93306200	      0.27924600	     -1.08217100	      0.93151600	      0.19000100	     -1.08657200	      0.94784700	      0.24387400	     -1.06732800	      0.80703500	      0.23817200	     -1.08564800	      0.37771900	      0.30125000	     -0.99299900	      0.42955300	      0.10751000	     -1.14406900	      0.44902600	      0.33020300	     -1.02633200	      0.48560200	      0.18084200	     -1.18223200	      0.37029700	      0.32472600	     -1.00094400	      0.40909100	      0.20572900	     -1.34385700	      0.13715000	      0.38067800	     -0.90677400	      0.18307500	      0.24400500	     -1.31771400	      0.20202800	      0.32430000	     -0.97462400	      0.22438100	      0.21825400	     -1.33500300	      0.04316900	      0.26953900	     -0.88922200	      0.04052500	      0.22119000	     20.48728501	     96.48104713	      2.97018895	     -1.32392383	      0.00000000	      0.26707663	    -32.49097769	    186.27094064	      8.45117281	     -0.98428320	      0.00000000	      0.21190085	      0.00000000	      0.42017209	      0.00000000	      0.00000000	     -0.13214136	      0.00000000	     -1.14887190	      0.60538614	      0.24238592	     -1.14745343	      0.61488128	      0.30089489	     -1.14108682	      0.62116230	      0.18379094	     -1.22576201	      0.32554287	      0.28922388	     -1.03147769	      0.34048131	      0.21314278	     -1.40621853	      0.08390735	      0.27746895	     -0.97631598	      0.05739150	      0.21882227	     -1.10057557	      0.68013519	      0.24804996	     -1.10551691	      0.67526025	      0.33893901	     -1.09563422	      0.68501014	      0.15716091	     -1.23825479	      0.69872499	      0.27981439	     -1.23277318	      0.69481790	      0.20034996	     -1.23819363	      0.32712212	      0.33348405	     -1.02864289	      0.33659407	      0.16538450	     -1.22029066	      0.32783490	      0.24338682	     -1.03548062	      0.34051946	      0.25482133	     -1.41127229	      0.08607405	      0.31051460	     -0.98406899	      0.05524903	      0.18733338	     -1.40443981	      0.09505633	      0.24956693	     -0.97710258	      0.05654145	      0.25243384	     -1.15328777	      1.01348209	      0.24670197	     -1.06853747	      0.93306166	      0.27924562	     -1.08217061	      0.93151635	      0.19000146	     -1.08657205	      0.94784749	      0.24387366	     -1.06732810	      0.80703527	      0.23817152	     -1.08564842	      0.37771940	      0.30124992	     -0.99299890	      0.42955256	      0.10751001	     -1.14406908	      0.44902590	      0.33020344	     -1.02633178	      0.48560226	      0.18084179	     -1.18223214	      0.37029749	      0.32472619	     -1.00094426	      0.40909135	      0.20572858	     -1.34385693	      0.13715000	      0.38067785	     -0.90677363	      0.18307501	      0.24400537	     -1.31771362	      0.20202820	      0.32429984	     -0.97462434	      0.22438088	      0.21825434	     -1.33500350	      0.04316864	      0.26953882	     -0.88922238	      0.04052455	      0.22118968
      0.95833000	     -1.10688726	      0.66372926	      0.24992688	      5.29119641	      3.43571079	     -2.32379106	    -19.98837869	     -2.50392682	    -13.36879776	    -21.74675686	     13.70069772	     16.78572571	      6.88687296	     -3.25540924	    -10.47245885	    -10.94443302	    -24.83693485	     -5.99399025	      6.19451424	      0.00000000	      0.00000000	      0.00000000	      0.00000000	     -0.99889830	      0.64966808	      0.31646427	     -0.98844076	      0.66087178	      0.14269654	     -1.09737993	      0.66458644	      0.25031355	     -1.12305210	      0.71021974	      0.26907048	     -1.11841631	      0.71491471	      0.18402213	     -1.15273297	      0.61095571	      0.30210289	     -1.14876116	      0.61817672	      0.18843902	     -1.15074707	      0.61456622	      0.24527096	     -1.19122380	      0.29560468	      0.34728886	     -1.16935649	      0.28763995	      0.25660964	     -1.03345558	      0.33178261	      0.31650289	     -1.09440679	      0.41055210	      0.34180757	     -1.13434247	      0.33242070	      0.33757385	     -1.40807932	      0.07488193	      0.31180382	     -1.38574531	      0.05962410	      0.25699979	     -1.34768497	      0.12907406	      0.38960641	     -1.30137179	      0.17057900	      0.33111314	     -1.23072954	      0.31713319	      0.29391624	     -1.39925797	      0.08483151	      0.26022966	     -1.32775393	      0.01923599	      0.32369729	     -0.98203555	      0.33797861	      0.14138543	     -0.97630596	      0.34548015	      0.23300356	     -0.94668381	      0.42127598	      0.07780834	     -0.96660463	      0.48706867	      0.15257688	     -0.94384409	      0.40889040	      0.17703067	     -0.96454230	      0.04212020	      0.17150036	     -0.94268362	      0.04538465	      0.23298330	     -0.86625318	      0.16368729	      0.20961951	     -0.93652253	      0.21073754	      0.19154967	     -1.03912573	      0.33636715	      0.21095043	     -0.98318212	      0.05365754	      0.23207563	     -0.86654952	      0.01276499	      0.18206125	     -1.04433364	      0.98151706	      0.27868941	     -1.04974535	      0.98737355	      0.19034848	     -1.14659462	      1.00157860	      0.24496047	     -1.06550591	      0.98901505	      0.24371689	     -0.96785103	      0.88740647	      0.22582601	     -1.14276600	      0.60681000	      0.24172500	     -1.14131600	      0.61615700	      0.30016800	     -1.13484200	      0.62260200	      0.18307900	     -1.21932400	      0.32633000	      0.28995400	     -1.02761100	      0.34097500	      0.21236000	     -1.40312900	      0.08682000	      0.27876000	     -0.97586600	      0.05717800	      0.21858400	     -1.09408600	      0.68126900	      0.24746200	     -1.09910600	      0.67627200	      0.33825800	     -1.08906500	      0.68626700	      0.15666600	     -1.23165900	      0.70047100	      0.27915400	     -1.22618000	      0.69667600	      0.19974300	     -1.23175000	      0.32811500	      0.33420800	     -1.02532500	      0.33687900	      0.16458900	     -1.21340100	      0.32820400	      0.24389100	     -1.03191100	      0.34088700	      0.25365400	     -1.40827100	      0.08922400	      0.31177600	     -0.98364800	      0.05506900	      0.18710000	     -1.40093100	      0.09840500	      0.25108900	     -0.97675900	      0.05660600	      0.25219100	     -1.14758000	      1.01519500	      0.24605900	     -1.06238500	      0.93529300	      0.27839900	     -1.07621200	      0.93372400	      0.18909400	     -1.08054000	      0.94992500	      0.24305300	     -1.06057500	      0.80929900	      0.23720200	     -1.07900700	      0.37867700	      0.30171200	     -0.98940600	      0.42907500	      0.10608500	     -1.13790800	      0.44995000	      0.33056600	     -1.02117000	      0.48566700	      0.17938800	     -1.17564500	      0.37101000	      0.32519100	     -0.99681200	      0.40885100	      0.20405600	     -1.34017700	      0.14004700	      0.38208400	     -0.90497900	      0.18218000	      0.24346900	     -1.31289100	      0.20440600	      0.32548800	     -0.97246400	      0.22417800	      0.21743500	     -1.33360500	      0.04344700	      0.27028700	     -0.88883800	      0.03992500	      0.22094400	     17.82954044	     81.94116894	      2.88981514	     -1.32219263	      0.00000000	      0.26612521	    -32.83482101	    192.36522793	      9.59817250	     -0.98201831	      0.00000000	      0.21163545	      0.00000000	      0.40445300	      0.00000000	      0.00000000	     -0.11012073	      0.00000000	     -1.14276624	      0.60680968	      0.24172473	     -1.14131606	      0.61615705	      0.30016783	     -1.13484180	      0.62260157	      0.18307868	     -1.21932375	      0.32633036	      0.28995359	     -1.02761102	      0.34097496	      0.21235950	     -1.40312874	      0.08682040	      0.27876046	     -0.97586638	      0.05717796	      0.21858396	     -1.09408569	      0.68126929	      0.24746217	     -1.09910619	      0.67627192	      0.33825845	     -1.08906531	      0.68626666	      0.15666589	     -1.23165929	      0.70047110	      0.27915388	     -1.22618032	      0.69667637	      0.19974330	     -1.23174953	      0.32811517	      0.33420756	     -1.02532470	      0.33687878	      0.16458929	     -1.21340108	      0.32820374	      0.24389057	     -1.03191078	      0.34088695	      0.25365382	     -1.40827107	      0.08922382	      0.31177610	     -0.98364848	      0.05506853	      0.18709999	     -1.40093052	      0.09840528	      0.25108883	     -0.97675854	      0.05660622	      0.25219110	     -1.14757991	      1.01519477	      0.24605882	     -1.06238472	      0.93529296	      0.27839944	     -1.07621205	      0.93372440	      0.18909445	     -1.08054018	      0.94992453	      0.24305333	     -1.06057537	      0.80929893	      0.23720159	     -1.07900679	      0.37867713	      0.30171189	     -0.98940563	      0.42907542	      0.10608451	     -1.13790786	      0.44995040	      0.33056569	     -1.02117038	      0.48566678	      0.17938781	     -1.17564487	      0.37101012	      0.32519063	     -0.99681222	      0.40885139	      0.20405628	     -1.34017670	      0.14004672	      0.38208401	     -0.90497905	      0.18218002	      0.24346943	     -1.31289065	      0.20440565	      0.32548794	     -0.97246403	      0.22417773	      0.21743470	     -1.33360469	      0.04344727	      0.27028742	     -0.88883758	      0.03992486	      0.22094405
      0.96667000	     -1.10056910	      0.66491390	      0.24945909	      5.02249949	      3.53494054	     -2.37971387	    -19.55693730	     -2.92369666	    -13.44384076	    -22.70075423	     12.13081009	     16.49157579	      6.96812669	     -3.88921824	    -10.49259582	    -10.49049566	    -24.39410592	     -6.18300737	      6.41158091	      0.00000000	      0.00000000	      0.00000000	      0.00000000	     -0.99270264	      0.65021952	      0.31605834	     -0.98204972	      0.66168802	      0.14231976	     -1.09105812	      0.66572521	      0.24985502	     -1.11652868	      0.71144590	      0.26867390	     -1.11180100	      0.71627278	      0.18363800	     -1.14670759	      0.61226432	      0.30150209	     -1.14260845	      0.61967217	      0.18785477	     -1.14465802	      0.61596825	      0.24467843	     -1.18441176	      0.29708496	      0.34851226	     -1.16245944	      0.28864496	      0.25789658	     -1.02671615	      0.33349163	      0.31762404	     -1.08788959	      0.41224957	      0.34242339	     -1.12761930	      0.33399108	      0.33862076	     -1.40446275	      0.07827293	      0.31308296	     -1.38226186	      0.06261768	      0.25833695	     -1.34344801	      0.13178100	      0.39087495	     -1.29649750	      0.17255251	      0.33237394	     -1.22382886	      0.31807221	      0.29501952	     -1.39543684	      0.08801116	      0.26150385	     -1.32653387	      0.01910168	      0.32433383	     -0.97934939	      0.33753868	      0.14021421	     -0.97268941	      0.34528012	      0.23174942	     -0.94369555	      0.42023982	      0.07603034	     -0.96221296	      0.48648976	      0.15075586	     -0.94006843	      0.40815166	      0.17526368	     -0.96485905	      0.04158491	      0.17117138	     -0.94239728	      0.04480797	      0.23243877	     -0.86487750	      0.16217477	      0.20797022	     -0.93478434	      0.20994484	      0.19038950	     -1.03580227	      0.33677223	      0.21030917	     -0.98280810	      0.05352825	      0.23187645	     -0.86689047	      0.01208173	      0.18067010	     -1.03843849	      0.98343649	      0.27771409	     -1.04416337	      0.98925085	      0.18939012	     -1.14086785	      1.00320223	      0.24432312	     -1.05974901	      0.99086467	      0.24281071	     -0.96187151	      0.88952357	      0.22462179	     -1.13669000	      0.60829100	      0.24104800	     -1.13522700	      0.61748200	      0.29944300	     -1.12858400	      0.62409100	      0.18237300	     -1.21250400	      0.32705500	      0.29091100	     -1.02414000	      0.34142900	      0.21162700	     -1.39971900	      0.08979500	      0.28020600	     -0.97549600	      0.05702100	      0.21838200	     -1.08763900	      0.68246700	      0.24690200	     -1.09278500	      0.67734700	      0.33758700	     -1.08249300	      0.68758600	      0.15621700	     -1.22511000	      0.70220900	      0.27846400	     -1.21964100	      0.69858000	      0.19907300	     -1.22498500	      0.32907700	      0.33514000	     -1.02232400	      0.33715600	      0.16385200	     -1.20616300	      0.32828300	      0.24480500	     -1.02861400	      0.34141400	      0.25279400	     -1.40496800	      0.09244900	      0.31318500	     -0.98333400	      0.05493300	      0.18691000	     -1.39717200	      0.10188200	      0.25276500	     -0.97671500	      0.05662400	      0.25204300	     -1.14194300	      1.01689300	      0.24538100	     -1.05629300	      0.93756200	      0.27756300	     -1.07013800	      0.93598900	      0.18822200	     -1.07454100	      0.95205900	      0.24224900	     -1.05368800	      0.81162100	      0.23622600	     -1.07208200	      0.37969400	      0.30252400	     -0.98593300	      0.42860600	      0.10482300	     -1.13153600	      0.45091600	      0.33110000	     -1.01633000	      0.48595200	      0.17823200	     -1.16882800	      0.37159000	      0.32598100	     -0.99292000	      0.40873900	      0.20279300	     -1.33622900	      0.14300000	      0.38366300	     -0.90338500	      0.18137400	      0.24289000	     -1.30772200	      0.20679500	      0.32690300	     -0.97071700	      0.22398300	      0.21676300	     -1.33213800	      0.04371000	      0.27110400	     -0.88855200	      0.03949400	      0.22079500	     14.83974450	     68.19971939	      2.62703103	     -1.32042493	      0.00000000	      0.26517419	    -31.47260329	    196.27074082	      9.81524908	     -0.98062384	      0.00000000	      0.21146597	      0.00000000	      0.36750217	      0.00000000	      0.00000000	     -0.04982141	      0.00000000	     -1.13669038	      0.60829121	      0.24104777	     -1.13522720	      0.61748219	      0.29944333	     -1.12858415	      0.62409121	      0.18237279	     -1.21250403	      0.32705513	      0.29091150	     -1.02414036	      0.34142941	      0.21162687	     -1.39971876	      0.08979510	      0.28020576	     -0.97549611	      0.05702140	      0.21838188	     -1.08763909	      0.68246651	      0.24690194	     -1.09278488	      0.67734706	      0.33758715	     -1.08249319	      0.68758601	      0.15621674	     -1.22511029	      0.70220941	      0.27846438	     -1.21964097	      0.69857991	      0.19907314	     -1.22498465	      0.32907668	      0.33513987	     -1.02232420	      0.33715600	      0.16385201	     -1.20616329	      0.32828334	      0.24480450	     -1.02861404	      0.34141409	      0.25279373	     -1.40496814	      0.09244911	      0.31318530	     -0.98333400	      0.05493335	      0.18691036	     -1.39717245	      0.10188209	      0.25276518	     -0.97671467	      0.05662404	      0.25204250	     -1.14194298	      1.01689339	      0.24538141	     -1.05629337	      0.93756205	      0.27756342	     -1.07013750	      0.93598908	      0.18822198	     -1.07454121	      0.95205861	      0.24224915	     -1.05368829	      0.81162113	      0.23622605	     -1.07208169	      0.37969390	      0.30252376	     -0.98593259	      0.42860571	      0.10482331	     -1.13153553	      0.45091629	      0.33109993	     -1.01633048	      0.48595235	      0.17823198	     -1.16882777	      0.37159044	      0.32598132	     -0.99291956	      0.40873882	      0.20279346	     -1.33622921	      0.14299965	      0.38366300	     -0.90338463	      0.18137440	      0.24289005	     -1.30772209	      0.20679526	      0.32690260	     -0.97071701	      0.22398274	      0.21676339	     -1.33213794	      0.04370984	      0.27110359	     -0.88855201	      0.03949423	      0.22079514
